<svg xmlns="http://www.w3.org/2000/svg" width="340" height="347" viewBox="0 0 340 347" font-family="sans-serif"><defs><clipPath id="clip-main"><rect x="35" y="10" width="300" height="300"></rect></clipPath></defs><rect width="100%" height="100%" fill="white"></rect><rect x="35" y="10" width="300" height="300" fill="none" stroke="#ddd"></rect><line x1="35" y1="10" x2="35" y2="310" stroke="#ddd" stroke-width="1"></line><line x1="72.5" y1="10" x2="72.5" y2="310" stroke="#ddd" stroke-width="1"></line><line x1="110" y1="10" x2="110" y2="310" stroke="#ddd" stroke-width="1"></line><line x1="147.5" y1="10" x2="147.5" y2="310" stroke="#ddd" stroke-width="1"></line><line x1="185" y1="10" x2="185" y2="310" stroke="#ddd" stroke-width="1"></line><line x1="222.5" y1="10" x2="222.5" y2="310" stroke="#ddd" stroke-width="1"></line><line x1="260" y1="10" x2="260" y2="310" stroke="#ddd" stroke-width="1"></line><line x1="297.5" y1="10" x2="297.5" y2="310" stroke="#ddd" stroke-width="1"></line><line x1="335" y1="10" x2="335" y2="310" stroke="#ddd" stroke-width="1"></line><line x1="35" y1="310" x2="335" y2="310" stroke="#888" stroke-width="1"></line><line x1="35" y1="310" x2="35" y2="315" stroke="#888" stroke-width="1"></line><text x="35" y="325" font-size="10" fill="#000" text-anchor="start">1.0</text><line x1="72.5" y1="310" x2="72.5" y2="315" stroke="#888" stroke-width="1"></line><text x="72.5" y="325" font-size="10" fill="#000" text-anchor="middle">1.5</text><line x1="110" y1="310" x2="110" y2="315" stroke="#888" stroke-width="1"></line><text x="110" y="325" font-size="10" fill="#000" text-anchor="middle">2.0</text><line x1="147.5" y1="310" x2="147.5" y2="315" stroke="#888" stroke-width="1"></line><text x="147.5" y="325" font-size="10" fill="#000" text-anchor="middle">2.5</text><line x1="185" y1="310" x2="185" y2="315" stroke="#888" stroke-width="1"></line><text x="185" y="325" font-size="10" fill="#000" text-anchor="middle">3.0</text><line x1="222.5" y1="310" x2="222.5" y2="315" stroke="#888" stroke-width="1"></line><text x="222.5" y="325" font-size="10" fill="#000" text-anchor="middle">3.5</text><line x1="260" y1="310" x2="260" y2="315" stroke="#888" stroke-width="1"></line><text x="260" y="325" font-size="10" fill="#000" text-anchor="middle">4.0</text><line x1="297.5" y1="310" x2="297.5" y2="315" stroke="#888" stroke-width="1"></line><text x="297.5" y="325" font-size="10" fill="#000" text-anchor="middle">4.5</text><line x1="335" y1="310" x2="335" y2="315" stroke="#888" stroke-width="1"></line><text x="335" y="325" font-size="10" fill="#000" text-anchor="end">5.0</text><text x="185" y="339.8" font-size="11" fill="#000" font-weight="bold" text-anchor="middle">t</text><line x1="35" y1="10" x2="335" y2="10" stroke="#ddd" stroke-width="1"></line><line x1="35" y1="47.5" x2="335" y2="47.5" stroke="#ddd" stroke-width="1"></line><line x1="35" y1="85" x2="335" y2="85" stroke="#ddd" stroke-width="1"></line><line x1="35" y1="122.5" x2="335" y2="122.5" stroke="#ddd" stroke-width="1"></line><line x1="35" y1="160" x2="335" y2="160" stroke="#ddd" stroke-width="1"></line><line x1="35" y1="197.5" x2="335" y2="197.5" stroke="#ddd" stroke-width="1"></line><line x1="35" y1="235" x2="335" y2="235" stroke="#ddd" stroke-width="1"></line><line x1="35" y1="272.5" x2="335" y2="272.5" stroke="#ddd" stroke-width="1"></line><line x1="35" y1="310" x2="335" y2="310" stroke="#ddd" stroke-width="1"></line><line x1="35" y1="10" x2="35" y2="310" stroke="#888" stroke-width="1"></line><line x1="30" y1="10" x2="35" y2="10" stroke="#888" stroke-width="1"></line><text x="28" y="13.5" font-size="10" fill="#000" text-anchor="end">8</text><line x1="30" y1="47.5" x2="35" y2="47.5" stroke="#888" stroke-width="1"></line><text x="28" y="51" font-size="10" fill="#000" text-anchor="end">7</text><line x1="30" y1="85" x2="35" y2="85" stroke="#888" stroke-width="1"></line><text x="28" y="88.5" font-size="10" fill="#000" text-anchor="end">6</text><line x1="30" y1="122.5" x2="35" y2="122.5" stroke="#888" stroke-width="1"></line><text x="28" y="126" font-size="10" fill="#000" text-anchor="end">5</text><line x1="30" y1="160" x2="35" y2="160" stroke="#888" stroke-width="1"></line><text x="28" y="163.5" font-size="10" fill="#000" text-anchor="end">4</text><line x1="30" y1="197.5" x2="35" y2="197.5" stroke="#888" stroke-width="1"></line><text x="28" y="201" font-size="10" fill="#000" text-anchor="end">3</text><line x1="30" y1="235" x2="35" y2="235" stroke="#888" stroke-width="1"></line><text x="28" y="238.5" font-size="10" fill="#000" text-anchor="end">2</text><line x1="30" y1="272.5" x2="35" y2="272.5" stroke="#888" stroke-width="1"></line><text x="28" y="276" font-size="10" fill="#000" text-anchor="end">1</text><line x1="30" y1="310" x2="35" y2="310" stroke="#888" stroke-width="1"></line><text x="28" y="313.5" font-size="10" fill="#000" text-anchor="end">0</text><text x="16" y="160" dy="0" font-size="11" fill="#000" font-weight="bold" text-anchor="middle" transform="rotate(-90 16 160)">v</text><g><path d="M35,197.5L110,122.5L185,160L260,10L335,85L335,310L260,310L185,310L110,310L35,310Z" fill="#4c78a8"></path></g></svg>
