<svg xmlns="http://www.w3.org/2000/svg" width="574" height="440" viewBox="0 0 574 440" font-family="Arial, Liberation Sans, sans-serif"><defs><clipPath id="clip-vconcat_0"><rect x="46" y="11" width="40" height="300"></rect></clipPath><clipPath id="clip-vconcat_1"><rect x="46" y="361" width="480" height="40"></rect></clipPath></defs><rect width="100%" height="100%" fill="#fcfcfb"></rect><line x1="46.5" y1="311.5" x2="86.5" y2="311.5" stroke="#c3c2b7" stroke-width="1"></line><line x1="56.5" y1="311.5" x2="56.5" y2="315.5" stroke="#c3c2b7" stroke-width="1"></line><text x="56" y="319.5" dy="3" font-size="11" fill="#52514e" text-anchor="end" transform="rotate(270 56 319.5)">a</text><line x1="76.5" y1="311.5" x2="76.5" y2="315.5" stroke="#c3c2b7" stroke-width="1"></line><text x="76" y="319.5" dy="3" font-size="11" fill="#52514e" text-anchor="end" transform="rotate(270 76 319.5)">b</text><text x="66.5" y="338.62" font-size="12" fill="#52514e" font-weight="normal" text-anchor="middle">k</text><line x1="46.5" y1="311.5" x2="86.5" y2="311.5" stroke="#e1e0d9" stroke-width="1"></line><line x1="46.5" y1="274" x2="86.5" y2="274" stroke="#e1e0d9" stroke-width="1"></line><line x1="46.5" y1="236.5" x2="86.5" y2="236.5" stroke="#e1e0d9" stroke-width="1"></line><line x1="46.5" y1="199" x2="86.5" y2="199" stroke="#e1e0d9" stroke-width="1"></line><line x1="46.5" y1="161.5" x2="86.5" y2="161.5" stroke="#e1e0d9" stroke-width="1"></line><line x1="46.5" y1="124" x2="86.5" y2="124" stroke="#e1e0d9" stroke-width="1"></line><line x1="46.5" y1="86.5" x2="86.5" y2="86.5" stroke="#e1e0d9" stroke-width="1"></line><line x1="46.5" y1="49" x2="86.5" y2="49" stroke="#e1e0d9" stroke-width="1"></line><line x1="46.5" y1="11.5" x2="86.5" y2="11.5" stroke="#e1e0d9" stroke-width="1"></line><line x1="46.5" y1="11.5" x2="46.5" y2="311.5" stroke="#c3c2b7" stroke-width="1"></line><line x1="42.5" y1="311.5" x2="46.5" y2="311.5" stroke="#c3c2b7" stroke-width="1"></line><text x="38.5" y="314.5" font-size="11" fill="#52514e" text-anchor="end">0.0</text><line x1="42.5" y1="274" x2="46.5" y2="274" stroke="#c3c2b7" stroke-width="1"></line><text x="38.5" y="277" font-size="11" fill="#52514e" text-anchor="end">0.5</text><line x1="42.5" y1="236.5" x2="46.5" y2="236.5" stroke="#c3c2b7" stroke-width="1"></line><text x="38.5" y="239.5" font-size="11" fill="#52514e" text-anchor="end">1.0</text><line x1="42.5" y1="199" x2="46.5" y2="199" stroke="#c3c2b7" stroke-width="1"></line><text x="38.5" y="202" font-size="11" fill="#52514e" text-anchor="end">1.5</text><line x1="42.5" y1="161.5" x2="46.5" y2="161.5" stroke="#c3c2b7" stroke-width="1"></line><text x="38.5" y="164.5" font-size="11" fill="#52514e" text-anchor="end">2.0</text><line x1="42.5" y1="124" x2="46.5" y2="124" stroke="#c3c2b7" stroke-width="1"></line><text x="38.5" y="127" font-size="11" fill="#52514e" text-anchor="end">2.5</text><line x1="42.5" y1="86.5" x2="46.5" y2="86.5" stroke="#c3c2b7" stroke-width="1"></line><text x="38.5" y="89.5" font-size="11" fill="#52514e" text-anchor="end">3.0</text><line x1="42.5" y1="49" x2="46.5" y2="49" stroke="#c3c2b7" stroke-width="1"></line><text x="38.5" y="52" font-size="11" fill="#52514e" text-anchor="end">3.5</text><line x1="42.5" y1="11.5" x2="46.5" y2="11.5" stroke="#c3c2b7" stroke-width="1"></line><text x="38.5" y="14.5" font-size="11" fill="#52514e" text-anchor="end">4.0</text><text x="19.21" y="161.5" dy="-3" font-size="12" fill="#52514e" font-weight="normal" text-anchor="middle" transform="rotate(-90 19.21 161.5)">v</text><g><path d="M51,86H61A4,4 0 0 1 65,90V161H47V90A4,4 0 0 1 51,86Z" fill="#2a78d6"></path><rect x="47" y="161" width="18" height="150" fill="#eb6834"></rect><path d="M71,11H81A4,4 0 0 1 85,15V236H67V15A4,4 0 0 1 71,11Z" fill="#2a78d6"></path><rect x="67" y="236" width="18" height="75" fill="#eb6834"></rect></g><text x="548" y="20" font-size="11" fill="#52514e" font-weight="normal" text-anchor="start">c</text><circle cx="553.5" cy="32.5" r="4.47" fill="#2a78d6"></circle><text x="563" y="35.5" font-size="11" fill="#52514e" text-anchor="start">x</text><circle cx="553.5" cy="46.5" r="4.47" fill="#eb6834"></circle><text x="563" y="49.5" font-size="11" fill="#52514e" text-anchor="start">y</text><line x1="46.5" y1="401.5" x2="526.5" y2="401.5" stroke="#c3c2b7" stroke-width="1"></line><line x1="46.5" y1="401.5" x2="46.5" y2="405.5" stroke="#c3c2b7" stroke-width="1"></line><text x="46.5" y="418.5" font-size="11" fill="#52514e" text-anchor="start">0.0</text><line x1="78.5" y1="401.5" x2="78.5" y2="405.5" stroke="#c3c2b7" stroke-width="1"></line><text x="78.5" y="418.5" font-size="11" fill="#52514e" text-anchor="middle">0.2</text><line x1="110.5" y1="401.5" x2="110.5" y2="405.5" stroke="#c3c2b7" stroke-width="1"></line><text x="110.5" y="418.5" font-size="11" fill="#52514e" text-anchor="middle">0.4</text><line x1="142.5" y1="401.5" x2="142.5" y2="405.5" stroke="#c3c2b7" stroke-width="1"></line><text x="142.5" y="418.5" font-size="11" fill="#52514e" text-anchor="middle">0.6</text><line x1="174.5" y1="401.5" x2="174.5" y2="405.5" stroke="#c3c2b7" stroke-width="1"></line><text x="174.5" y="418.5" font-size="11" fill="#52514e" text-anchor="middle">0.8</text><line x1="206.5" y1="401.5" x2="206.5" y2="405.5" stroke="#c3c2b7" stroke-width="1"></line><text x="206.5" y="418.5" font-size="11" fill="#52514e" text-anchor="middle">1.0</text><line x1="238.5" y1="401.5" x2="238.5" y2="405.5" stroke="#c3c2b7" stroke-width="1"></line><text x="238.5" y="418.5" font-size="11" fill="#52514e" text-anchor="middle">1.2</text><line x1="270.5" y1="401.5" x2="270.5" y2="405.5" stroke="#c3c2b7" stroke-width="1"></line><text x="270.5" y="418.5" font-size="11" fill="#52514e" text-anchor="middle">1.4</text><line x1="302.5" y1="401.5" x2="302.5" y2="405.5" stroke="#c3c2b7" stroke-width="1"></line><text x="302.5" y="418.5" font-size="11" fill="#52514e" text-anchor="middle">1.6</text><line x1="334.5" y1="401.5" x2="334.5" y2="405.5" stroke="#c3c2b7" stroke-width="1"></line><text x="334.5" y="418.5" font-size="11" fill="#52514e" text-anchor="middle">1.8</text><line x1="366.5" y1="401.5" x2="366.5" y2="405.5" stroke="#c3c2b7" stroke-width="1"></line><text x="366.5" y="418.5" font-size="11" fill="#52514e" text-anchor="middle">2.0</text><line x1="398.5" y1="401.5" x2="398.5" y2="405.5" stroke="#c3c2b7" stroke-width="1"></line><text x="398.5" y="418.5" font-size="11" fill="#52514e" text-anchor="middle">2.2</text><line x1="430.5" y1="401.5" x2="430.5" y2="405.5" stroke="#c3c2b7" stroke-width="1"></line><text x="430.5" y="418.5" font-size="11" fill="#52514e" text-anchor="middle">2.4</text><line x1="462.5" y1="401.5" x2="462.5" y2="405.5" stroke="#c3c2b7" stroke-width="1"></line><text x="462.5" y="418.5" font-size="11" fill="#52514e" text-anchor="middle">2.6</text><line x1="494.5" y1="401.5" x2="494.5" y2="405.5" stroke="#c3c2b7" stroke-width="1"></line><text x="494.5" y="418.5" font-size="11" fill="#52514e" text-anchor="middle">2.8</text><line x1="526.5" y1="401.5" x2="526.5" y2="405.5" stroke="#c3c2b7" stroke-width="1"></line><text x="526.5" y="418.5" font-size="11" fill="#52514e" text-anchor="end">3.0</text><text x="286.5" y="433.5" font-size="12" fill="#52514e" font-weight="normal" text-anchor="middle">v</text><line x1="46.5" y1="361.5" x2="46.5" y2="401.5" stroke="#c3c2b7" stroke-width="1"></line><line x1="42.5" y1="371.5" x2="46.5" y2="371.5" stroke="#c3c2b7" stroke-width="1"></line><text x="38.5" y="374.5" font-size="11" fill="#52514e" text-anchor="end">a</text><line x1="42.5" y1="391.5" x2="46.5" y2="391.5" stroke="#c3c2b7" stroke-width="1"></line><text x="38.5" y="394.5" font-size="11" fill="#52514e" text-anchor="end">b</text><text x="28.38" y="381.5" dy="-3" font-size="12" fill="#52514e" font-weight="normal" text-anchor="middle" transform="rotate(-90 28.38 381.5)">k</text><g><circle cx="206" cy="371" r="4" fill="#2a78d6" opacity="0.7"></circle><circle cx="366" cy="371" r="4" fill="#2a78d6" opacity="0.7"></circle><circle cx="526" cy="391" r="4" fill="#2a78d6" opacity="0.7"></circle><circle cx="206" cy="391" r="4" fill="#2a78d6" opacity="0.7"></circle></g></svg>
